<?xml version="1.0" encoding="utf-8"?>
<!-- Generator: Adobe Illustrator 19.1.0, SVG Export Plug-In . SVG Version: 6.00 Build 0)  -->
<svg version="1.1" id="Capa_1" xmlns="http://www.w3.org/2000/svg" xmlns:xlink="http://www.w3.org/1999/xlink" x="0px" y="0px"
	 viewBox="-41 164.9 512 512" style="enable-background:new -41 164.9 512 512;" xml:space="preserve">
<style type="text/css">
	.st0{fill:#FFFFFF;}
	.st1{fill:#0093EE;}
</style>
<circle class="st0" cx="227" cy="413.8" r="185"/>
<path class="st1" d="M215,164.9c-141.2,0-256,114.8-256,256s114.8,256,256,256s256-114.8,256-256S356.2,164.9,215,164.9z
	 M338.1,440.6H234.7v108.3c0,10.9-8.8,19.7-19.7,19.7c-10.9,0-19.7-8.8-19.7-19.7V440.6H91.9c-10.9,0-19.7-8.8-19.7-19.7
	s8.8-19.7,19.7-19.7h103.4v-98.5c0-10.9,8.8-19.7,19.7-19.7c10.9,0,19.7,8.8,19.7,19.7v98.5h103.4c10.9,0,19.7,8.8,19.7,19.7
	S348.9,440.6,338.1,440.6z"/>
</svg>
