<?xml version="1.0" encoding="iso-8859-1"?>
<!-- Generator: Adobe Illustrator 19.0.0, SVG Export Plug-In . SVG Version: 6.00 Build 0)  -->
<svg version="1.1" id="Layer_1" xmlns="http://www.w3.org/2000/svg" xmlns:xlink="http://www.w3.org/1999/xlink" x="0px" y="0px"
	 viewBox="0 0 512 512" style="enable-background:new 0 0 512 512;" xml:space="preserve">
<g>
	<g>
		<path d="M406.261,179.291V83.478C406.261,37.448,368.813,0,322.783,0H189.217c-46.03,0-83.478,37.448-83.478,83.478v95.813
			c-31.154,35.325-50.087,81.67-50.087,132.361C55.652,422.124,145.528,512,256,512s200.348-89.876,200.348-200.348
			C456.348,260.961,437.415,214.616,406.261,179.291z M139.13,83.478c0-27.618,22.469-50.087,50.087-50.087h133.565
			c27.618,0,50.087,22.469,50.087,50.087v65.545c-32.917-23.722-73.287-37.719-116.87-37.719s-83.952,13.997-116.87,37.719V83.478z
			 M256,478.609c-92.06,0-166.956-74.897-166.956-166.957S163.94,144.696,256,144.696s166.957,74.897,166.957,166.956
			S348.06,478.609,256,478.609z"/>
	</g>
</g>
<g>
	<g>
		<path d="M256,411.826c-55.236,0-100.174-44.938-100.174-100.174c0-9.22-7.475-16.696-16.696-16.696s-16.696,7.475-16.696,16.696
			c0,73.648,59.917,133.565,133.565,133.565c9.22,0,16.696-7.475,16.696-16.696S265.22,411.826,256,411.826z"/>
	</g>
</g>
<g>
</g>
<g>
</g>
<g>
</g>
<g>
</g>
<g>
</g>
<g>
</g>
<g>
</g>
<g>
</g>
<g>
</g>
<g>
</g>
<g>
</g>
<g>
</g>
<g>
</g>
<g>
</g>
<g>
</g>
</svg>
