<?xml version="1.0" encoding="iso-8859-1"?>
<!-- Generator: Adobe Illustrator 19.0.0, SVG Export Plug-In . SVG Version: 6.00 Build 0)  -->
<svg version="1.1" id="Layer_1" xmlns="http://www.w3.org/2000/svg" xmlns:xlink="http://www.w3.org/1999/xlink" x="0px" y="0px"
	 viewBox="0 0 512 512" style="enable-background:new 0 0 512 512;" xml:space="preserve">
<g>
	<g>
		<path d="M322.783,0H189.217c-46.032,0-83.478,37.446-83.478,83.478v49.288c10.399-8.75,21.57-16.605,33.391-23.461V83.478
			c0-27.619,22.468-50.087,50.087-50.087h133.565c27.619,0,50.087,22.468,50.087,50.087V109.3
			c11.825,6.857,22.99,14.727,33.391,23.48V83.478C406.261,37.446,368.815,0,322.783,0z"/>
	</g>
</g>
<g>
	<g>
		<path d="M406.261,179.577v-0.294c-9.953-11.285-21.16-21.433-33.391-30.248v0.221c-25.67-18.527-55.809-31.225-88.514-35.928
			c-14.787-2.105-29.794-2.569-44.681-1.348c-4.058,0.333-8.1,0.789-12.13,1.364c-32.666,4.715-62.77,17.405-88.414,35.912v-0.228
			c-12.237,8.82-23.435,18.99-33.391,30.281v0.267c-31.072,35.304-50.088,81.459-50.088,132.075C55.652,422.125,145.527,512,256,512
			s200.348-89.875,200.348-200.348C456.348,261.036,437.331,214.881,406.261,179.577z M256,445.217
			c-73.647,0-133.565-59.919-133.565-133.565c0-9.223,7.473-16.696,16.696-16.696c9.223,0,16.696,7.473,16.696,16.696
			c0,55.234,44.94,100.174,100.174,100.174c9.223,0,16.696,7.473,16.696,16.696C272.696,437.744,265.223,445.217,256,445.217z"/>
	</g>
</g>
<g>
</g>
<g>
</g>
<g>
</g>
<g>
</g>
<g>
</g>
<g>
</g>
<g>
</g>
<g>
</g>
<g>
</g>
<g>
</g>
<g>
</g>
<g>
</g>
<g>
</g>
<g>
</g>
<g>
</g>
</svg>
